HIERARCHY
ROOT Hips
{
  OFFSET 5.72205e-005 65.662 3.42586
  CHANNELS 6 Xposition Yposition Zposition Zrotation Xrotation Yrotation
  JOINT Chest
  {
    OFFSET 0 8.7983 -4.7612
    CHANNELS 6 Xposition Yposition Zposition Zrotation Xrotation Yrotation
    JOINT Chest2
    {
      OFFSET 0 8.0291 0.4195
      CHANNELS 6 Xposition Yposition Zposition Zrotation Xrotation Yrotation
      JOINT Chest3
      {
        OFFSET 0 9.9351 -2.2114
        CHANNELS 6 Xposition Yposition Zposition Zrotation Xrotation Yrotation
        JOINT Neck
        {
          OFFSET 0 22.3885 -0.4656
          CHANNELS 6 Xposition Yposition Zposition Zrotation Xrotation Yrotation
          JOINT Head
          {
            OFFSET -0.0001 12.643 3.4389
            CHANNELS 6 Xposition Yposition Zposition Zrotation Xrotation Yrotation
            End Site
            {
              OFFSET 0.0001 17.6655 0.5274
            }
          }
        }
        JOINT LeftCollar
        {
          OFFSET 2.2603 21.606 7.4023
          CHANNELS 6 Xposition Yposition Zposition Zrotation Xrotation Yrotation
          JOINT LeftShoulder
          {
            OFFSET 13.5163 -1.1332 -5.0146
            CHANNELS 6 Xposition Yposition Zposition Zrotation Xrotation Yrotation
            JOINT LeftElbow
            {
              OFFSET -0.0995 -28.05 -0.2431
              CHANNELS 6 Xposition Yposition Zposition Zrotation Xrotation Yrotation
              JOINT LeftWrist
              {
                OFFSET 0.0679 -23.3996 -0.1402
                CHANNELS 6 Xposition Yposition Zposition Zrotation Xrotation Yrotation
                JOINT LeftFinger1
                {
                  OFFSET 0.7932 -9.069 2.5189
                  CHANNELS 6 Xposition Yposition Zposition Zrotation Xrotation Yrotation
                  JOINT LeftFinger11
                  {
                    OFFSET -0.8272 -3.3923 0.5977
                    CHANNELS 6 Xposition Yposition Zposition Zrotation Xrotation Yrotation
                    JOINT LeftFinger12
                    {
                      OFFSET -0.5649 -2.3158 0.4082
                      CHANNELS 6 Xposition Yposition Zposition Zrotation Xrotation Yrotation
                      End Site
                      {
                        OFFSET -0.4919 -1.6479 0.2673
                      }
                    }
                  }
                }
                JOINT LeftFinger2
                {
                  OFFSET 0.9159 -9.2044 0.2193
                  CHANNELS 6 Xposition Yposition Zposition Zrotation Xrotation Yrotation
                  JOINT LeftFinger21
                  {
                    OFFSET 0.0117 -4.1944 -0.0248
                    CHANNELS 6 Xposition Yposition Zposition Zrotation Xrotation Yrotation
                    JOINT LeftFinger22
                    {
                      OFFSET 0.0071 -2.3249 -0.0142
                      CHANNELS 6 Xposition Yposition Zposition Zrotation Xrotation Yrotation
                      End Site
                      {
                        OFFSET -0.1475 -2.0882 0.0028
                      }
                    }
                  }
                }
                JOINT LeftFinger3
                {
                  OFFSET 0.6113 -8.7231 -2.0637
                  CHANNELS 6 Xposition Yposition Zposition Zrotation Xrotation Yrotation
                  JOINT LeftFinger31
                  {
                    OFFSET -0.1927 -3.8059 -0.2383
                    CHANNELS 6 Xposition Yposition Zposition Zrotation Xrotation Yrotation
                    JOINT LeftFinger32
                    {
                      OFFSET -0.1091 -2.1688 -0.1362
                      CHANNELS 6 Xposition Yposition Zposition Zrotation Xrotation Yrotation
                      End Site
                      {
                        OFFSET -0.2358 -1.9176 -0.0906
                      }
                    }
                  }
                }
                JOINT LeftFinger4
                {
                  OFFSET -0.6151 -8.0947 -3.5641
                  CHANNELS 6 Xposition Yposition Zposition Zrotation Xrotation Yrotation
                  JOINT LeftFinger41
                  {
                    OFFSET -0.4882 -2.341 -0.6462
                    CHANNELS 6 Xposition Yposition Zposition Zrotation Xrotation Yrotation
                    JOINT LeftFinger42
                    {
                      OFFSET -0.3575 -1.7167 -0.4742
                      CHANNELS 6 Xposition Yposition Zposition Zrotation Xrotation Yrotation
                      End Site
                      {
                        OFFSET -0.4187 -1.5237 -0.3496
                      }
                    }
                  }
                }
                JOINT LeftFinger0
                {
                  OFFSET -1.42 -1.8761 1.4223
                  CHANNELS 6 Xposition Yposition Zposition Zrotation Xrotation Yrotation
                  JOINT LeftFinger01
                  {
                    OFFSET -1.1471 -3.4929 2.6334
                    CHANNELS 6 Xposition Yposition Zposition Zrotation Xrotation Yrotation
                    JOINT LeftFinger02
                    {
                      OFFSET -0.823 -2.3 1.6571
                      CHANNELS 6 Xposition Yposition Zposition Zrotation Xrotation Yrotation
                      End Site
                      {
                        OFFSET -0.5822 -1.6914 1.1582
                      }
                    }
                  }
                }
              }
            }
          }
        }
        JOINT RightCollar
        {
          OFFSET -2.2603 21.606 7.4023
          CHANNELS 6 Xposition Yposition Zposition Zrotation Xrotation Yrotation
          JOINT RightShoulder
          {
            OFFSET -13.5187 -1.1334 -5.0155
            CHANNELS 6 Xposition Yposition Zposition Zrotation Xrotation Yrotation
            JOINT RightElbow
            {
              OFFSET 0.0994 -28.0499 -0.2431
              CHANNELS 6 Xposition Yposition Zposition Zrotation Xrotation Yrotation
              JOINT RightWrist
              {
                OFFSET -0.0679 -23.3996 -0.1402
                CHANNELS 6 Xposition Yposition Zposition Zrotation Xrotation Yrotation
                JOINT RightFinger1
                {
                  OFFSET -0.7932 -9.0691 2.5189
                  CHANNELS 6 Xposition Yposition Zposition Zrotation Xrotation Yrotation
                  JOINT RightFinger11
                  {
                    OFFSET 0.8272 -3.3923 0.5977
                    CHANNELS 6 Xposition Yposition Zposition Zrotation Xrotation Yrotation
                    JOINT RightFinger12
                    {
                      OFFSET 0.565 -2.3158 0.4082
                      CHANNELS 6 Xposition Yposition Zposition Zrotation Xrotation Yrotation
                      End Site
                      {
                        OFFSET 0.4919 -1.6479 0.2673
                      }
                    }
                  }
                }
                JOINT RightFinger2
                {
                  OFFSET -0.916 -9.2044 0.2193
                  CHANNELS 6 Xposition Yposition Zposition Zrotation Xrotation Yrotation
                  JOINT RightFinger21
                  {
                    OFFSET -0.0117 -4.1944 -0.0248
                    CHANNELS 6 Xposition Yposition Zposition Zrotation Xrotation Yrotation
                    JOINT RightFinger22
                    {
                      OFFSET -0.0071 -2.3249 -0.0142
                      CHANNELS 6 Xposition Yposition Zposition Zrotation Xrotation Yrotation
                      End Site
                      {
                        OFFSET 0.1475 -2.0882 0.0028
                      }
                    }
                  }
                }
                JOINT RightFinger3
                {
                  OFFSET -0.6113 -8.7231 -2.0637
                  CHANNELS 6 Xposition Yposition Zposition Zrotation Xrotation Yrotation
                  JOINT RightFinger31
                  {
                    OFFSET 0.1927 -3.8059 -0.2383
                    CHANNELS 6 Xposition Yposition Zposition Zrotation Xrotation Yrotation
                    JOINT RightFinger32
                    {
                      OFFSET 0.1091 -2.1688 -0.1362
                      CHANNELS 6 Xposition Yposition Zposition Zrotation Xrotation Yrotation
                      End Site
                      {
                        OFFSET 0.2358 -1.9176 -0.0906
                      }
                    }
                  }
                }
                JOINT RightFinger4
                {
                  OFFSET 0.6151 -8.0947 -3.564
                  CHANNELS 6 Xposition Yposition Zposition Zrotation Xrotation Yrotation
                  JOINT RightFinger41
                  {
                    OFFSET 0.4882 -2.341 -0.6462
                    CHANNELS 6 Xposition Yposition Zposition Zrotation Xrotation Yrotation
                    JOINT RightFinger42
                    {
                      OFFSET 0.3574 -1.7166 -0.4742
                      CHANNELS 6 Xposition Yposition Zposition Zrotation Xrotation Yrotation
                      End Site
                      {
                        OFFSET 0.4187 -1.5237 -0.3496
                      }
                    }
                  }
                }
                JOINT RightFinger0
                {
                  OFFSET 1.4199 -1.8761 1.4221
                  CHANNELS 6 Xposition Yposition Zposition Zrotation Xrotation Yrotation
                  JOINT RightFinger01
                  {
                    OFFSET 1.1472 -3.4929 2.6336
                    CHANNELS 6 Xposition Yposition Zposition Zrotation Xrotation Yrotation
                    JOINT RightFinger02
                    {
                      OFFSET 0.8229 -2.3 1.6571
                      CHANNELS 6 Xposition Yposition Zposition Zrotation Xrotation Yrotation
                      End Site
                      {
                        OFFSET 0.5822 -1.6914 1.1582
                      }
                    }
                  }
                }
              }
            }
          }
        }
      }
    }
  }
  JOINT RightHip
  {
    OFFSET -9.412 3.9771 -0.7758
    CHANNELS 6 Xposition Yposition Zposition Zrotation Xrotation Yrotation
    JOINT RightKnee
    {
      OFFSET -0.7531 -40.938 0
      CHANNELS 6 Xposition Yposition Zposition Zrotation Xrotation Yrotation
      JOINT RightAnkle
      {
        OFFSET 0 -40.1986 0
        CHANNELS 6 Xposition Yposition Zposition Zrotation Xrotation Yrotation
        JOINT RightToe
        {
          OFFSET 0 -4.4182 9.239
          CHANNELS 6 Xposition Yposition Zposition Zrotation Xrotation Yrotation
          End Site
          {
            OFFSET 0 0 6.1981
          }
        }
      }
    }
  }
  JOINT LeftHip
  {
    OFFSET 9.4119 3.9773 -0.7758
    CHANNELS 6 Xposition Yposition Zposition Zrotation Xrotation Yrotation
    JOINT LeftKnee
    {
      OFFSET 0.7532 -40.9383 0
      CHANNELS 6 Xposition Yposition Zposition Zrotation Xrotation Yrotation
      JOINT LeftAnkle
      {
        OFFSET 0 -40.1986 0
        CHANNELS 6 Xposition Yposition Zposition Zrotation Xrotation Yrotation
        JOINT LeftToe
        {
          OFFSET 0 -4.4182 9.239
          CHANNELS 6 Xposition Yposition Zposition Zrotation Xrotation Yrotation
          End Site
          {
            OFFSET 0 0 6.1981
          }
        }
      }
    }
  }
}
MOTION
Frames:	4
Frame Time:	0.0333333
-43.8418 40.6745 43.3473 -99.547 -89.9887 -99.5358 -7.10543e-015 8.7983 -4.7612 -0.220006 3.25138 -0.404067 1.42109e-014 8.0291 0.4195 -0.418011 6.50421 -0.797539 7.10543e-015 9.9351 -2.2114 -0.418009 6.50422 -0.797537 7.10543e-015 22.3885 -0.4656 6.25208e-007 -19.716 4.70573e-007 -0.0001 12.643 3.4389 6.42161e-007 -0.904318 2.85363e-007 2.2603 21.606 7.4023 7.10266 -34.6268 -26.5783 13.5163 -1.1332 -5.0146 50.3145 -54.0071 67.676 -0.0995 -28.05 -0.2431 -171.101 -68.0047 -149.144 0.0679 -23.3996 -0.1402 -26.9021 -11.6828 15.7032 0.7932 -9.069 2.5189 4.48387e-006 6.37325e-006 -5.48807e-006 -0.8272 -3.3923 0.5977 2.16985e-006 8.36464e-006 7.7331e-006 -0.5649 -2.3158 0.4082 1.04055e-006 -9.20673e-007 1.18733e-006 0.9159 -9.2044 0.2193 4.48387e-006 6.37325e-006 -5.48807e-006 0.0117 -4.1944 -0.0248 -0.012797 0.00233473 9.42211e-005 0.0071 -2.3249 -0.0142 -1.27222e-014 6.36111e-015 -1.59028e-015 0.6113 -8.7231 -2.0637 4.48387e-006 6.37325e-006 -5.48807e-006 -0.1927 -3.8059 -0.2383 -0.0160362 0.00298293 0.000856468 -0.1091 -2.1688 -0.1362 3.18055e-015 1.27222e-014 3.18055e-015 -0.6151 -8.0947 -3.5641 4.48387e-006 6.37325e-006 -5.48807e-006 -0.4882 -2.341 -0.6462 -0.012586 0.00313169 0.00283271 -0.3575 -1.7167 -0.4742 -2.64834e-031 4.77083e-015 3.18055e-015 -1.42 -1.8761 1.4223 4.48387e-006 6.37325e-006 -5.48807e-006 -1.1471 -3.4929 2.6334 2.16985e-006 8.36464e-006 7.7331e-006 -0.823 -2.3 1.6571 1.04055e-006 -9.20673e-007 1.18733e-006 -2.2603 21.606 7.4023 -8.52398 -34.7923 20.3332 -13.5187 -1.1334 -5.0155 -41.8512 -48.077 -60.4882 0.0994 -28.0499 -0.2431 174.171 -68.58 151.212 -0.0679 -23.3996 -0.1402 18.6178 -10.3856 -17.1158 -0.7932 -9.0691 2.5189 -2.79795e-006 -1.63827e-005 9.76244e-006 0.8272 -3.3923 0.5977 -4.31002e-006 1.93308e-005 -3.25595e-006 0.565 -2.3158 0.4082 3.18055e-015 0 -3.97569e-015 -0.916 -9.2044 0.2193 -2.79795e-006 -1.63827e-005 9.76244e-006 -0.0117 -4.1944 -0.0248 0.013003 0.00235863 -9.08994e-005 -0.0071 -2.3249 -0.0142 -3.18055e-015 -1.59028e-015 -3.97569e-015 -0.6113 -8.7231 -2.0637 -2.79795e-006 -1.63827e-005 9.76244e-006 0.1927 -3.8059 -0.2383 0.0162787 0.00303699 -0.000863072 0.1091 -2.1688 -0.1362 3.18055e-015 1.59028e-015 -1.59028e-015 0.6151 -8.0947 -3.564 -2.79795e-006 -1.63827e-005 9.76244e-006 0.4882 -2.341 -0.6462 0.0145602 0.00369074 -0.00326025 0.3574 -1.7166 -0.4742 -7.63218e-007 8.0825e-007 1.80421e-006 1.4199 -1.8761 1.4221 -2.79795e-006 -1.63827e-005 9.76244e-006 1.1472 -3.4929 2.6336 -4.31002e-006 1.93308e-005 -3.25595e-006 0.8229 -2.3 1.6571 3.18055e-015 0 -3.97569e-015 -9.412 3.9771 -0.7758 -7.0153 -31.8079 -3.02727 -0.7531 -40.938 -7.10543e-015 -133.118 84.6303 131.094 0 -40.1986 0 9.41707 29.0149 -12.203 1.06581e-014 -4.4182 9.239 -8.44545e-007 -3.67592e-007 -3.39614e-008 9.4119 3.9773 -0.7758 2.31083 -31.3546 -3.23147 0.7532 -40.9383 1.06581e-014 131.829 84.8014 -129.843 7.10543e-015 -40.1986 0 -15.1942 27.2296 16.4602 0 -4.4182 9.239 -3.8132e-008 -2.11123e-007 -1.6332e-006 
-43.8418 40.6378 43.3533 -99.5469 -89.9887 -99.5358 -7.10543e-015 8.7983 -4.7612 -0.22052 3.28467 -0.403682 -7.10543e-015 8.0291 0.4195 -0.418845 6.57083 -0.796644 -7.10543e-015 9.9351 -2.2114 -0.418846 6.57084 -0.796645 7.10543e-015 22.3885 -0.4656 3.45644e-006 -19.516 4.50567e-006 -0.0001 12.643 3.4389 2.75378e-007 -1.49957 5.16696e-007 2.2603 21.606 7.4023 7.31643 -34.7554 -26.3711 13.5163 -1.1332 -5.0146 50.1629 -53.7873 67.5216 -0.0995 -28.05 -0.2431 -171.101 -68.0047 -149.144 0.0679 -23.3996 -0.1402 -26.7428 -11.5848 15.8035 0.7932 -9.069 2.5189 -3.18055e-015 4.77083e-015 -7.95139e-015 -0.8272 -3.3923 0.5977 0 1.27222e-014 -0 -0.5649 -2.3158 0.4082 -2.46581e-006 9.37926e-006 5.06442e-006 0.9159 -9.2044 0.2193 -3.18055e-015 4.77083e-015 -7.95139e-015 0.0117 -4.1944 -0.0248 -0.0128116 0.00232997 8.81709e-005 0.0071 -2.3249 -0.0142 4.08473e-006 -3.19726e-007 1.39944e-006 0.6113 -8.7231 -2.0637 -3.18055e-015 4.77083e-015 -7.95139e-015 -0.1927 -3.8059 -0.2383 -0.0160067 0.0029972 0.000853259 -0.1091 -2.1688 -0.1362 1.03082e-006 3.36512e-007 1.1946e-006 -0.6151 -8.0947 -3.5641 -3.18055e-015 4.77083e-015 -7.95139e-015 -0.4882 -2.341 -0.6462 -0.0125989 0.00312135 0.00282192 -0.3575 -1.7167 -0.4742 3.52773e-006 3.87827e-007 -3.2721e-006 -1.42 -1.8761 1.4223 -3.18055e-015 4.77083e-015 -7.95139e-015 -1.1471 -3.4929 2.6334 0 1.27222e-014 -0 -0.823 -2.3 1.6571 -2.46581e-006 9.37926e-006 5.06442e-006 -2.2603 21.606 7.4023 -8.72854 -34.9126 20.128 -13.5187 -1.1334 -5.0155 -41.7847 -48.0037 -60.1947 0.0994 -28.0499 -0.2431 174.171 -68.5801 151.212 -0.0679 -23.3996 -0.1402 18.4702 -10.2811 -17.2129 -0.7932 -9.0691 2.5189 3.18055e-015 3.18055e-015 -2.38542e-015 0.8272 -3.3923 0.5977 -3.18055e-015 6.36111e-015 7.15625e-015 0.565 -2.3158 0.4082 -6.36111e-015 1.11319e-014 7.95139e-015 -0.916 -9.2044 0.2193 3.18055e-015 3.18055e-015 -2.38542e-015 -0.0117 -4.1944 -0.0248 0.0129759 0.00233531 -8.1213e-005 -0.0071 -2.3249 -0.0142 -3.18055e-015 -6.36111e-015 -7.95139e-016 -0.6113 -8.7231 -2.0637 3.18055e-015 3.18055e-015 -2.38542e-015 0.1927 -3.8059 -0.2383 0.0163516 0.00303824 -0.000876468 0.1091 -2.1688 -0.1362 -6.36111e-015 4.77083e-015 2.38542e-015 0.6151 -8.0947 -3.564 3.18055e-015 3.18055e-015 -2.38542e-015 0.4882 -2.341 -0.6462 0.0145388 0.00368121 -0.00325987 0.3574 -1.7166 -0.4742 3.18055e-015 3.18055e-015 -1.59028e-015 1.4199 -1.8761 1.4221 3.18055e-015 3.18055e-015 -2.38542e-015 1.1472 -3.4929 2.6336 -3.18055e-015 6.36111e-015 7.15625e-015 0.8229 -2.3 1.6571 -6.36111e-015 1.11319e-014 7.95139e-015 -9.412 3.9771 -0.7758 -7.25723 -31.8659 -3.33977 -0.7531 -40.938 3.55271e-015 -133.026 84.6383 131 7.10543e-015 -40.1986 1.42109e-014 9.09311 28.9719 -11.9484 3.55271e-015 -4.4182 9.239 8.84071e-009 1.38697e-009 1.63451e-006 9.4119 3.9773 -0.7758 2.71281 -31.4603 -2.70028 0.7532 -40.9383 3.55271e-015 131.801 84.8037 -129.81 0 -40.1986 0 -14.6614 27.2619 16.0534 0 -4.4182 9.239 -8.44837e-007 2.59076e-007 -1.56791e-008 
-43.8418 40.6011 43.3593 -99.5468 -89.9887 -99.5356 -7.10543e-015 8.7983 -4.7612 -0.221033 3.31799 -0.403293 0 8.0291 0.4195 -0.41968 6.63745 -0.795745 -7.10543e-015 9.9351 -2.2114 -0.419679 6.63745 -0.795745 -7.10543e-015 22.3885 -0.4656 -2.50656e-006 -19.316 -2.86348e-006 -0.0001 12.643 3.4389 -4.39566e-007 -2.09517 -6.27285e-007 2.2603 21.606 7.4023 7.53108 -34.8834 -26.163 13.5163 -1.1332 -5.0146 50.0131 -53.5671 67.3691 -0.0995 -28.05 -0.2431 -171.102 -68.0047 -149.144 0.0679 -23.3996 -0.1402 -26.5838 -11.4865 15.9034 0.7932 -9.06901 2.5189 -3.18055e-015 -3.18055e-015 3.18055e-015 -0.8272 -3.3923 0.5977 1.10348e-030 -7.95139e-015 7.95139e-015 -0.5649 -2.3158 0.4082 -6.36111e-015 -1.59028e-015 -0 0.9159 -9.20441 0.2193 -3.18055e-015 -3.18055e-015 3.18055e-015 0.0117 -4.1944 -0.0248 -0.0128385 0.00235248 9.78143e-005 0.0071 -2.3249 -0.0142 -1.07664e-006 -8.44529e-006 -6.5773e-006 0.6113 -8.7231 -2.0637 -3.18055e-015 -3.18055e-015 3.18055e-015 -0.1927 -3.8059 -0.2383 -0.0159907 0.00297817 0.000857272 -0.1091 -2.1688 -0.1362 3.18055e-015 0 3.18055e-015 -0.6151 -8.0947 -3.5641 -3.18055e-015 -3.18055e-015 3.18055e-015 -0.4882 -2.341 -0.6462 -0.0126388 0.00314188 0.00283548 -0.3575 -1.7167 -0.4742 -6.36111e-015 0 3.18055e-015 -1.42 -1.8761 1.4223 -3.18055e-015 -3.18055e-015 3.18055e-015 -1.1471 -3.4929 2.6334 1.10348e-030 -7.95139e-015 7.95139e-015 -0.823 -2.3 1.6571 -6.36111e-015 -1.59028e-015 -0 -2.2603 21.606 7.4023 -8.93395 -35.0322 19.9219 -13.5187 -1.1334 -5.0155 -41.7185 -47.9304 -59.9016 0.0994 -28.0499 -0.2431 174.171 -68.5801 151.212 -0.0679 -23.3996 -0.1402 18.3229 -10.1763 -17.3098 -0.7932 -9.0691 2.5189 6.36111e-015 1.59028e-015 4.77083e-015 0.8272 -3.3923 0.5977 2.26105e-006 -6.41679e-007 -2.15825e-006 0.565 -2.3158 0.4082 3.08973e-031 3.18055e-015 -5.56597e-015 -0.916 -9.2044 0.2193 6.36111e-015 1.59028e-015 4.77083e-015 -0.0117 -4.1944 -0.0248 0.012904 0.00230324 -9.34074e-005 -0.0071 -2.3249 -0.0142 -7.28295e-031 4.77083e-015 8.74653e-015 -0.6113 -8.7231 -2.0637 6.36111e-015 1.59028e-015 4.77083e-015 0.1927 -3.8059 -0.2383 0.0162923 0.00302167 -0.000876946 0.1091 -2.1688 -0.1362 -3.18055e-015 0 -5.56597e-015 0.6151 -8.0947 -3.564 6.36111e-015 1.59028e-015 4.77083e-015 0.4882 -2.341 -0.6462 0.0146153 0.00368872 -0.00327607 0.3574 -1.7166 -0.4742 3.18055e-015 7.95139e-015 1.59028e-015 1.4199 -1.8761 1.4221 6.36111e-015 1.59028e-015 4.77083e-015 1.1472 -3.4929 2.6336 2.26105e-006 -6.41679e-007 -2.15825e-006 0.8229 -2.3 1.6571 3.08973e-031 3.18055e-015 -5.56597e-015 -9.412 3.9771 -0.7758 -7.49999 -31.9215 -3.653 -0.7531 -40.938 0 -132.924 84.6471 130.896 0 -40.1986 1.42109e-014 8.76953 28.9275 -11.6943 0 -4.4182 9.239 1.71452e-015 -5.96354e-016 -0 9.4119 3.9773 -0.7758 3.11718 -31.5558 -2.16695 0.7532 -40.9383 -1.06581e-014 131.713 84.8107 -129.716 -7.10543e-015 -40.1986 1.42109e-014 -14.1282 27.2908 15.646 0 -4.4182 9.239 1.6897e-006 -2.94618e-007 2.78739e-008 
-43.8419 40.5644 43.3653 -99.5468 -89.9887 -99.5357 0 8.7983 -4.7612 -0.221547 3.35132 -0.402907 0 8.0291 0.4195 -0.420517 6.70413 -0.794849 -7.10543e-015 9.9351 -2.2114 -0.420517 6.70412 -0.794849 -7.10543e-015 22.3885 -0.4656 6.47421e-006 -19.116 7.42804e-006 -0.0001 12.643 3.4389 -6.59864e-008 -2.69116 -4.36939e-007 2.2603 21.606 7.4023 7.74669 -35.0108 -25.9539 13.5163 -1.1332 -5.0146 49.865 -53.3469 67.2181 -0.0995 -28.05 -0.2431 -171.101 -68.0047 -149.144 0.0679 -23.3996 -0.1402 -26.4249 -11.3879 16.003 0.7932 -9.069 2.5189 6.36111e-015 -3.18055e-015 -3.18055e-015 -0.8272 -3.3923 0.5977 -6.36111e-015 3.18055e-015 1.59028e-015 -0.5649 -2.3158 0.4082 9.54166e-015 0 -3.18055e-015 0.9159 -9.2044 0.2193 6.36111e-015 -3.18055e-015 -3.18055e-015 0.0117 -4.1944 -0.0248 -0.0128241 0.00232291 7.00554e-005 0.0071 -2.3249 -0.0142 3.59854e-008 8.1982e-006 8.76449e-006 0.6113 -8.7231 -2.0637 6.36111e-015 -3.18055e-015 -3.18055e-015 -0.1927 -3.8059 -0.2383 -0.0160679 0.00299457 0.00084104 -0.1091 -2.1688 -0.1362 2.64834e-031 -4.77083e-015 3.18055e-015 -0.6151 -8.0947 -3.5641 6.36111e-015 -3.18055e-015 -3.18055e-015 -0.4882 -2.341 -0.6462 -0.0126613 0.0031345 0.00283242 -0.3575 -1.7167 -0.4742 4.09872e-008 1.33848e-006 5.38411e-006 -1.42 -1.8761 1.4223 6.36111e-015 -3.18055e-015 -3.18055e-015 -1.1471 -3.4929 2.6334 -6.36111e-015 3.18055e-015 1.59028e-015 -0.823 -2.3 1.6571 9.54166e-015 0 -3.18055e-015 -2.2603 21.606 7.4023 -9.14019 -35.1515 19.7149 -13.5187 -1.1334 -5.0155 -41.6528 -47.8569 -59.6089 0.0994 -28.0499 -0.2431 174.171 -68.58 151.212 -0.0679 -23.3996 -0.1402 18.1757 -10.0712 -17.4064 -0.7932 -9.0691 2.5189 9.54166e-015 9.54166e-015 7.95139e-016 0.8272 -3.3923 0.5977 9.54166e-015 0 5.56597e-015 0.565 -2.3158 0.4082 3.18055e-015 3.18055e-015 2.38542e-015 -0.916 -9.2044 0.2193 9.54166e-015 9.54166e-015 7.95139e-016 -0.0117 -4.1944 -0.0248 0.0129618 0.00232099 -8.83348e-005 -0.0071 -2.3249 -0.0142 3.18055e-015 3.18055e-015 -1.59028e-015 -0.6113 -8.7231 -2.0637 9.54166e-015 9.54166e-015 7.95139e-016 0.1927 -3.8059 -0.2383 0.016316 0.00304734 -0.000879998 0.1091 -2.1688 -0.1362 6.36111e-015 4.77083e-015 -4.77083e-015 0.6151 -8.0947 -3.564 9.54166e-015 9.54166e-015 7.95139e-016 0.4882 -2.341 -0.6462 0.0145529 0.00367197 -0.00325967 0.3574 -1.7166 -0.4742 9.54166e-015 -6.36111e-015 -3.97569e-015 1.4199 -1.8761 1.4221 9.54166e-015 9.54166e-015 7.95139e-016 1.1472 -3.4929 2.6336 9.54166e-015 0 5.56597e-015 0.8229 -2.3 1.6571 3.18055e-015 3.18055e-015 2.38542e-015 -9.412 3.9771 -0.7758 -7.74292 -31.9779 -3.96653 -0.7531 -40.938 3.55271e-015 -132.837 84.6546 130.806 0 -40.1986 0 8.44634 28.8819 -11.4406 3.55271e-015 -4.4182 9.239 1.674e-008 2.2788e-007 1.63499e-006 9.4119 3.9773 -0.7758 3.52286 -31.6516 -1.63227 0.7532 -40.9383 -7.10543e-015 131.655 84.8154 -129.651 0 -40.1986 0 -13.5946 27.3163 15.2382 0 -4.4182 9.239 2.98177e-016 7.95139e-016 -0 
